HIERARCHY
ROOT hip
{
  OFFSET 0.00112043 5.09927 -9.65472
  CHANNELS 6 Xposition Yposition Zposition Zrotation Xrotation Yrotation
  JOINT abdomen
  {
    OFFSET 0 -1.186 -1.5018
    CHANNELS 3 Zrotation Xrotation Yrotation
    JOINT abdomen2
    {
      OFFSET 0 9.964 0.2134
      CHANNELS 3 Zrotation Xrotation Yrotation
      JOINT chest
      {
        OFFSET 0 13.134 -3.2573
        CHANNELS 3 Zrotation Xrotation Yrotation
        JOINT neck
        {
          OFFSET 0 20.686 -1.6905
          CHANNELS 3 Zrotation Xrotation Yrotation
          JOINT head
          {
            OFFSET 0 7.238 -0.1237
            CHANNELS 3 Zrotation Xrotation Yrotation
            End Site
            {
              OFFSET 0 0 0
            }
          }
        }
        JOINT lCollar
        {
          OFFSET 1.7069 20.075 5.0056
          CHANNELS 3 Zrotation Xrotation Yrotation
          JOINT lShldr
          {
            OFFSET 13.6458 -0.047 -4.849
            CHANNELS 3 Zrotation Xrotation Yrotation
            JOINT lForeArm
            {
              OFFSET 28.3255 -0.9759 2.2888
              CHANNELS 3 Zrotation Xrotation Yrotation
              JOINT lHand
              {
                OFFSET 22.1583 -0.53 10.8316
                CHANNELS 3 Zrotation Xrotation Yrotation
                JOINT lThumb1
                {
                  OFFSET 0.786 0.112 2.5817
                  CHANNELS 3 Zrotation Xrotation Yrotation
                  JOINT lThumb2
                  {
                    OFFSET 0.3601 -0.878 4.2331
                    CHANNELS 3 Zrotation Xrotation Yrotation
                    JOINT lThumb2_End
                    {
                      OFFSET 1.8127 -1.216 2.2227
                      CHANNELS 3 Zrotation Xrotation Yrotation
                      End Site
                      {
                        OFFSET 0.0181 -0.0122 0.0222
                      }
                    }
                  }
                }
                JOINT lCarpal1
                {
                  OFFSET 0.9571 1.114 1.7695
                  CHANNELS 3 Zrotation Xrotation Yrotation
                  JOINT lIndex1
                  {
                    OFFSET 4.1246 0.487 4.1451
                    CHANNELS 3 Zrotation Xrotation Yrotation
                    JOINT lIndex2
                    {
                      OFFSET 3.4052 -1.454 2.7682
                      CHANNELS 3 Zrotation Xrotation Yrotation
                      JOINT lIndex2_End
                      {
                        OFFSET 1.4531 -1.795 1.2713
                        CHANNELS 3 Zrotation Xrotation Yrotation
                        End Site
                        {
                          OFFSET 0.0145 -0.0179 0.0127
                        }
                      }
                    }
                  }
                  JOINT lMid1
                  {
                    OFFSET 5.6954 0.21 2.1184
                    CHANNELS 3 Zrotation Xrotation Yrotation
                    JOINT lMid2
                    {
                      OFFSET 3.9766 -1.54 2.3863
                      CHANNELS 3 Zrotation Xrotation Yrotation
                      JOINT lMid2_End
                      {
                        OFFSET 1.4042 -1.926 1.125
                        CHANNELS 3 Zrotation Xrotation Yrotation
                        End Site
                        {
                          OFFSET 0.014 -0.0193 0.0113
                        }
                      }
                    }
                  }
                }
                JOINT lCarpal2
                {
                  OFFSET 2.0956 0.66 -0.3894
                  CHANNELS 3 Zrotation Xrotation Yrotation
                  JOINT lRing1
                  {
                    OFFSET 5.0395 -0.09 2.4971
                    CHANNELS 3 Zrotation Xrotation Yrotation
                    JOINT lRing2
                    {
                      OFFSET 3.7921 -1.552 1.4806
                      CHANNELS 3 Zrotation Xrotation Yrotation
                      JOINT lRing2_End
                      {
                        OFFSET 1.4655 -1.808 0.9609
                        CHANNELS 3 Zrotation Xrotation Yrotation
                        End Site
                        {
                          OFFSET 0.0147 -0.0181 0.0096
                        }
                      }
                    }
                  }
                  JOINT lPinky1
                  {
                    OFFSET 4.9141 -1.269 0.3591
                    CHANNELS 3 Zrotation Xrotation Yrotation
                    JOINT lPinky2
                    {
                      OFFSET 3.1477 -1.685 0.8462
                      CHANNELS 3 Zrotation Xrotation Yrotation
                      JOINT lPinky2_End
                      {
                        OFFSET 0.8055 -1.585 0.7955
                        CHANNELS 3 Zrotation Xrotation Yrotation
                        End Site
                        {
                          OFFSET 0.0081 -0.0158 0.008
                        }
                      }
                    }
                  }
                }
              }
            }
          }
        }
        JOINT rCollar
        {
          OFFSET -1.7069 20.075 5.0056
          CHANNELS 3 Zrotation Xrotation Yrotation
          JOINT rShldr
          {
            OFFSET -13.6458 -0.047 -4.849
            CHANNELS 3 Zrotation Xrotation Yrotation
            JOINT rForeArm
            {
              OFFSET -28.3255 -0.9759 2.2888
              CHANNELS 3 Zrotation Xrotation Yrotation
              JOINT rHand
              {
                OFFSET -22.1583 -0.53 10.8316
                CHANNELS 3 Zrotation Xrotation Yrotation
                JOINT rThumb1
                {
                  OFFSET -0.786 0.112 2.5817
                  CHANNELS 3 Zrotation Xrotation Yrotation
                  JOINT rThumb2
                  {
                    OFFSET -0.3601 -0.878 4.2331
                    CHANNELS 3 Zrotation Xrotation Yrotation
                    JOINT rThumb2_End
                    {
                      OFFSET -1.8127 -1.216 2.2227
                      CHANNELS 3 Zrotation Xrotation Yrotation
                      End Site
                      {
                        OFFSET -0.0181 -0.0122 0.0222
                      }
                    }
                  }
                }
                JOINT rCarpal1
                {
                  OFFSET -0.9571 1.114 1.7695
                  CHANNELS 3 Zrotation Xrotation Yrotation
                  JOINT rIndex1
                  {
                    OFFSET -4.1246 0.487 4.1451
                    CHANNELS 3 Zrotation Xrotation Yrotation
                    JOINT rIndex2
                    {
                      OFFSET -3.4052 -1.454 2.7682
                      CHANNELS 3 Zrotation Xrotation Yrotation
                      JOINT rIndex2_End
                      {
                        OFFSET -1.4531 -1.795 1.2713
                        CHANNELS 3 Zrotation Xrotation Yrotation
                        End Site
                        {
                          OFFSET -0.0145 -0.018 0.0127
                        }
                      }
                    }
                  }
                  JOINT rMid1
                  {
                    OFFSET -5.6954 0.21 2.1184
                    CHANNELS 3 Zrotation Xrotation Yrotation
                    JOINT rMid2
                    {
                      OFFSET -3.9766 -1.54 2.3863
                      CHANNELS 3 Zrotation Xrotation Yrotation
                      JOINT rMid2_End
                      {
                        OFFSET -1.4042 -1.926 1.125
                        CHANNELS 3 Zrotation Xrotation Yrotation
                        End Site
                        {
                          OFFSET -0.014 -0.0193 0.0113
                        }
                      }
                    }
                  }
                }
                JOINT rCarpal2
                {
                  OFFSET -2.0956 0.66 -0.3894
                  CHANNELS 3 Zrotation Xrotation Yrotation
                  JOINT rRing1
                  {
                    OFFSET -5.0395 -0.09 2.4971
                    CHANNELS 3 Zrotation Xrotation Yrotation
                    JOINT rRing2
                    {
                      OFFSET -3.7921 -1.552 1.4806
                      CHANNELS 3 Zrotation Xrotation Yrotation
                      JOINT rRing2_End
                      {
                        OFFSET -1.4655 -1.808 0.9609
                        CHANNELS 3 Zrotation Xrotation Yrotation
                        End Site
                        {
                          OFFSET -0.0147 -0.0181 0.0096
                        }
                      }
                    }
                  }
                  JOINT rPinky1
                  {
                    OFFSET -4.9141 -1.269 0.3592
                    CHANNELS 3 Zrotation Xrotation Yrotation
                    JOINT rPinky2
                    {
                      OFFSET -3.1477 -1.685 0.8462
                      CHANNELS 3 Zrotation Xrotation Yrotation
                      JOINT rPinky2_End
                      {
                        OFFSET -0.8055 -1.585 0.7955
                        CHANNELS 3 Zrotation Xrotation Yrotation
                        End Site
                        {
                          OFFSET -0.0081 -0.0158 0.008
                        }
                      }
                    }
                  }
                }
              }
            }
          }
        }
      }
    }
  }
  JOINT lThigh
  {
    OFFSET 8.367 -8.2066 0.5982
    CHANNELS 3 Zrotation Xrotation Yrotation
    JOINT lShin
    {
      OFFSET 2.1923 -43.463 -0.4932
      CHANNELS 3 Zrotation Xrotation Yrotation
      JOINT lFoot
      {
        OFFSET 0.7333 -45.8593 -2.6451
        CHANNELS 3 Zrotation Xrotation Yrotation
        End Site
        {
          OFFSET 2.6618 -4.2699 12.3931
        }
      }
    }
  }
  JOINT rThigh
  {
    OFFSET -8.367 -8.2066 0.5982
    CHANNELS 3 Zrotation Xrotation Yrotation
    JOINT rShin
    {
      OFFSET -2.1923 -43.463 -0.4931
      CHANNELS 3 Zrotation Xrotation Yrotation
      JOINT rFoot
      {
        OFFSET -0.7333 -45.8593 -2.6451
        CHANNELS 3 Zrotation Xrotation Yrotation
        End Site
        {
          OFFSET -2.6618 -4.2699 12.3931
        }
      }
    }
  }
}
MOTION
Frames:	4
Frame Time:	0.0333333
42.5597 2.65472 -12.6864 -180 -89.9981 -180 -2.1456 17.7252 -1.13053 -4.23207 35.4793 -1.64993 -4.23207 35.4793 -1.64993 -2.13612e-005 12.0834 -1.10038e-005 -7.21228e-007 -7.82136 4.12539e-007 -8.101 -3.88912 -2.69142 -82.7736 -6.11403 -48.8983 1.28917 18.22 8.30581 -3.51955 5.08652 25.3555 2.42352e-007 -6.2134e-007 -5.32416e-007 5.22873e-006 -2.69161e-006 -1.90844e-007 4.84704e-007 -1.24268e-006 -1.06483e-006 1.59028e-015 9.54166e-015 3.18055e-015 2.42352e-007 -6.2134e-007 -5.32416e-007 5.22873e-006 -2.69161e-006 -1.90844e-007 4.84704e-007 -1.24268e-006 -1.06483e-006 2.42352e-007 -6.2134e-007 -5.32416e-007 5.22873e-006 -2.69161e-006 -1.90844e-007 4.84704e-007 -1.24268e-006 -1.06483e-006 1.59028e-015 9.54166e-015 3.18055e-015 2.42352e-007 -6.2134e-007 -5.32416e-007 5.22873e-006 -2.69161e-006 -1.90844e-007 4.84704e-007 -1.24268e-006 -1.06483e-006 2.42352e-007 -6.2134e-007 -5.32416e-007 5.22873e-006 -2.69161e-006 -1.90844e-007 4.84704e-007 -1.24268e-006 -1.06483e-006 -0.132887 -9.68442 4.37862 58.4347 31.5072 19.3894 46.2804 21.5017 59.7998 -48.866 -1.64304 26.6561 -8.0767e-007 -4.7654e-007 2.54393e-006 1.59028e-015 9.14409e-015 -3.18055e-015 7.95139e-016 8.15017e-015 -1.59028e-015 5.51738e-033 1.98785e-016 -1.59028e-015 -8.0767e-007 -4.7654e-007 2.54393e-006 7.95139e-016 9.14409e-015 -4.77083e-015 0 9.93923e-015 -0 -8.0767e-007 -4.7654e-007 2.54393e-006 7.95139e-016 9.14409e-015 -4.77083e-015 0 9.93923e-015 -0 5.51738e-033 1.98785e-016 -1.59028e-015 -8.0767e-007 -4.7654e-007 2.54393e-006 7.95139e-016 9.14409e-015 -4.77083e-015 0 9.93923e-015 -0 -8.0767e-007 -4.7654e-007 2.54393e-006 7.95139e-016 9.14409e-015 -4.77083e-015 0 9.93923e-015 -0 37.9672 -9.06157 -3.44297 -31.0805 27.8891 14.1748 19.3171 49.1687 13.3926 -37.8348 -46.1661 -2.3539 178.417 83.8622 175.765 -40.4788 35.4733 16.8136 
42.5597 2.65472 -12.6864 -180 -89.9981 -180 -2.14559 17.7252 -1.13053 -4.23207 35.4793 -1.64992 -4.23207 35.4793 -1.64992 -3.68291e-005 12.0835 2.09351e-005 -2.87505e-008 -7.82135 -5.98865e-007 -8.101 -3.88913 -2.69142 -82.7736 -6.11402 -48.8983 1.28917 18.22 8.30581 -3.51954 5.08653 25.3555 0 0 -3.18055e-015 -1.59028e-015 0 -0 3.53113e-031 -3.18055e-015 6.36111e-015 0 0 -3.18055e-015 -4.77083e-015 -6.36111e-015 3.18055e-015 -1.76556e-031 3.18055e-015 3.18055e-015 -1.59028e-015 0 -0 -4.77083e-015 -6.36111e-015 3.18055e-015 -1.76556e-031 3.18055e-015 3.18055e-015 -1.59028e-015 0 -0 0 0 -3.18055e-015 -4.77083e-015 -6.36111e-015 3.18055e-015 -1.76556e-031 3.18055e-015 3.18055e-015 -1.59028e-015 0 -0 -4.77083e-015 -6.36111e-015 3.18055e-015 -1.76556e-031 3.18055e-015 3.18055e-015 -1.59028e-015 0 -0 -0.132886 -9.68443 4.37862 58.4347 31.5072 19.3894 46.2803 21.5017 59.7998 -48.8659 -1.64302 26.6561 -7.95139e-016 -3.61788e-014 -0 -7.95139e-016 -3.29983e-014 -1.59028e-015 -1.59028e-015 -3.4191e-014 -1.59028e-015 7.72434e-032 -2.78299e-015 1.59028e-015 -1.03368e-014 -8.54774e-014 1.59028e-015 -7.95139e-016 -3.57812e-014 -3.18055e-015 -7.95139e-016 -3.51849e-014 -4.77083e-015 -1.03368e-014 -8.54774e-014 1.59028e-015 -7.95139e-016 -3.57812e-014 -3.18055e-015 -7.95139e-016 -3.51849e-014 -4.77083e-015 7.72434e-032 -2.78299e-015 1.59028e-015 -1.03368e-014 -8.54774e-014 1.59028e-015 -7.95139e-016 -3.57812e-014 -3.18055e-015 -7.95139e-016 -3.51849e-014 -4.77083e-015 -1.03368e-014 -8.54774e-014 1.59028e-015 -7.95139e-016 -3.57812e-014 -3.18055e-015 -7.95139e-016 -3.51849e-014 -4.77083e-015 37.9672 -9.06158 -3.44293 -31.0805 27.8891 14.1748 19.3172 49.1688 13.3926 -37.8347 -46.1661 -2.35381 178.417 83.8621 175.765 -40.4789 35.4734 16.8137 
42.5664 2.65389 -12.5339 -180 -89.9981 -180 -2.13778 17.6086 -1.13818 -4.21059 35.2465 -1.67385 -4.21059 35.2465 -1.67385 -5.77834e-005 12.491 1.51609e-005 -6.48851e-007 -7.00805 7.08975e-007 -8.38372 -3.47707 -2.67413 -82.6965 -6.22392 -48.8814 1.28917 18.22 8.30581 -3.55919 5.21799 25.494 0 3.18055e-015 -0 -7.27631e-007 1.8634e-006 1.59769e-006 -2.42544e-007 6.21133e-007 5.32565e-007 -1.76556e-031 -3.18055e-015 -3.18055e-015 -1.11319e-014 3.18055e-015 9.54166e-015 -7.27631e-007 1.8634e-006 1.59769e-006 -2.42544e-007 6.21133e-007 5.32565e-007 -1.11319e-014 3.18055e-015 9.54166e-015 -7.27631e-007 1.8634e-006 1.59769e-006 -2.42544e-007 6.21133e-007 5.32565e-007 -1.76556e-031 -3.18055e-015 -3.18055e-015 -1.11319e-014 3.18055e-015 9.54166e-015 -7.27631e-007 1.8634e-006 1.59769e-006 -2.42544e-007 6.21133e-007 5.32565e-007 -1.11319e-014 3.18055e-015 9.54166e-015 -7.27631e-007 1.8634e-006 1.59769e-006 -2.42544e-007 6.21133e-007 5.32565e-007 -0.132887 -9.68442 4.37862 58.4347 31.5072 19.3894 46.5495 21.3901 59.2511 -48.5664 -1.21831 25.3244 2.41221e-006 -1.07575e-006 -6.16863e-007 1.22074e-006 6.2614e-007 -2.53333e-006 -1.22074e-006 -6.26141e-007 2.53333e-006 -1.59028e-015 1.98785e-016 -1.59028e-015 2.41221e-006 -1.07575e-006 -6.16863e-007 1.22074e-006 6.2614e-007 -2.53333e-006 -1.22074e-006 -6.26141e-007 2.53333e-006 2.41221e-006 -1.07575e-006 -6.16863e-007 1.22074e-006 6.2614e-007 -2.53333e-006 -1.22074e-006 -6.26141e-007 2.53333e-006 -1.59028e-015 1.98785e-016 -1.59028e-015 2.41221e-006 -1.07575e-006 -6.16863e-007 1.22074e-006 6.2614e-007 -2.53333e-006 -1.22074e-006 -6.26141e-007 2.53333e-006 2.41221e-006 -1.07575e-006 -6.16863e-007 1.22074e-006 6.2614e-007 -2.53333e-006 -1.22074e-006 -6.26141e-007 2.53333e-006 38.1362 -9.23789 -3.41656 -31.436 28.1985 14.3509 19.3391 48.9777 13.4607 -38.0293 -46.2152 -2.46942 178.421 83.8683 175.758 -40.4801 35.4649 16.808 
42.572 2.65321 -12.4092 -180 -89.9981 -180 -2.1314 17.5133 -1.14442 -4.19314 35.0559 -1.69329 -4.19314 35.0559 -1.69329 -8.74078e-005 12.8245 1.51102e-005 -1.0981e-007 -6.34213 6.18735e-007 -8.6151 -3.13991 -2.65837 -82.6334 -6.31383 -48.8674 1.28918 18.22 8.30583 -3.59185 5.32549 25.6074 -0 0 6.36111e-015 1.59028e-015 0 6.36111e-015 3.18055e-015 -3.18055e-015 6.36111e-015 0 0 -0 -3.18055e-015 0 1.27222e-014 1.59028e-015 0 6.36111e-015 -3.53113e-031 6.36111e-015 3.18055e-015 -3.18055e-015 0 1.27222e-014 1.59028e-015 0 6.36111e-015 -3.53113e-031 6.36111e-015 3.18055e-015 0 0 -0 -3.18055e-015 0 1.27222e-014 1.59028e-015 0 6.36111e-015 -3.53113e-031 6.36111e-015 3.18055e-015 -3.18055e-015 0 1.27222e-014 1.59028e-015 0 6.36111e-015 -3.53113e-031 6.36111e-015 3.18055e-015 -0.13289 -9.6844 4.37862 58.4347 31.5072 19.3894 46.7688 21.2975 58.8028 -48.3134 -0.875283 24.2309 -7.95139e-016 -1.2921e-015 1.59028e-015 3.99036e-006 4.15965e-006 4.07486e-006 -3.99036e-006 -4.15965e-006 -4.07486e-006 0 3.97569e-016 -0 -3.18055e-015 -2.49475e-014 3.18055e-015 3.99036e-006 4.15965e-006 4.07486e-006 -3.99036e-006 -4.15965e-006 -4.07486e-006 -3.18055e-015 -2.49475e-014 3.18055e-015 3.99036e-006 4.15965e-006 4.07486e-006 -3.99036e-006 -4.15965e-006 -4.07486e-006 0 3.97569e-016 -0 -3.18055e-015 -2.49475e-014 3.18055e-015 3.99036e-006 4.15965e-006 4.07486e-006 -3.99036e-006 -4.15965e-006 -4.07486e-006 -3.18055e-015 -2.49475e-014 3.18055e-015 3.99036e-006 4.15965e-006 4.07486e-006 -3.99036e-006 -4.15965e-006 -4.07486e-006 38.2744 -9.38201 -3.3945 -31.7281 28.4507 14.4968 19.3571 48.8215 13.5164 -38.1838 -46.2583 -2.56061 178.421 83.8705 175.752 -40.4811 35.458 16.8033 
